<svg xmlns="http://www.w3.org/2000/svg" width="20" height="20" viewBox="0 0 20 20">
  <path id="briefcase" d="M8.125,1A2.125,2.125,0,0,0,6.25,3.308v.769H1.875A2.125,2.125,0,0,0,0,6.385V18.692A2.125,2.125,0,0,0,1.875,21h16.25A2.125,2.125,0,0,0,20,18.692V6.385a2.125,2.125,0,0,0-1.875-2.308H13.75V3.308A2.125,2.125,0,0,0,11.875,1Zm0,1.538h3.75a.708.708,0,0,1,.625.769v.769h-5V3.308A.708.708,0,0,1,8.125,2.538Zm2.358,10.637,8.267-2.712v8.229a.708.708,0,0,1-.625.769H1.875a.708.708,0,0,1-.625-.769V10.462l8.268,2.714a1.537,1.537,0,0,0,.965,0ZM1.875,5.615h16.25a.708.708,0,0,1,.625.769V8.871l-8.589,2.818a.512.512,0,0,1-.322,0L1.25,8.871V6.385a.708.708,0,0,1,.625-.769Z" transform="translate(0 -1)"/>
</svg>
