<svg xmlns="http://www.w3.org/2000/svg" width="20" height="20" viewBox="0 0 20 20">
  <path id="house-door" d="M12.045,1.209a.812.812,0,0,0-1.089,0L1.725,9.78a.689.689,0,0,0-.225.506v10A.743.743,0,0,0,2.269,21H9.192a.743.743,0,0,0,.769-.714V14.571h3.077v5.714a.743.743,0,0,0,.769.714h6.923a.743.743,0,0,0,.769-.714v-10a.689.689,0,0,0-.225-.506L19.192,7.847v-4.7a.743.743,0,0,0-.769-.714H16.885a.743.743,0,0,0-.769.714V4.99ZM3.038,19.571V10.581L11.5,2.725l8.462,7.857v8.989H14.577V13.857a.743.743,0,0,0-.769-.714H9.192a.743.743,0,0,0-.769.714v5.714Z" transform="translate(-1.5 -0.999)"/>
</svg>
