<svg xmlns="http://www.w3.org/2000/svg" width="26" height="24" viewBox="0 0 26 24">
  <g id="drill" transform="translate(-2 -10)">
    <path id="Path_138" data-name="Path 138" d="M35.467,35.636c-1.914,0-3.465-1.955-3.467-4.364V29.091A1,1,0,0,1,32.867,28h2.6a1,1,0,0,1,.867,1.091v5.455A1,1,0,0,1,35.467,35.636Zm-1.733-5.455v1.091a2.334,2.334,0,0,0,.867,1.889v-2.98Z" transform="translate(-17 -8.182)" fill="#557791"/>
    <path id="Path_139" data-name="Path 139" d="M9.8,21.182H2.867A1,1,0,0,1,2,20.091,1,1,0,0,1,2.867,19H9.8a1,1,0,0,1,.867,1.091A1,1,0,0,1,9.8,21.182Z" transform="translate(0 -4.091)" fill="#e4e7eb"/>
    <path id="Path_140" data-name="Path 140" d="M22.907,13.272a.748.748,0,0,0-.681-.265l-3.467.545A1.036,1.036,0,0,0,18,14.636V20.09a1.036,1.036,0,0,0,.759,1.082l3.467.545a.666.666,0,0,0,.107.009,1,1,0,0,0,.867-1.091V14.09A1.23,1.23,0,0,0,22.907,13.272Z" transform="translate(-9.067 -1.363)" fill="#aabbc8"/>
    <rect id="Rectangle_25" data-name="Rectangle 25" width="6.933" height="14.182" rx="2" transform="translate(17.6 19.818)" fill="#557791"/>
    <path id="Path_141" data-name="Path 141" d="M38.133,10H26.867A1,1,0,0,0,26,11.091v9.818A1,1,0,0,0,26.867,22H38.133c1.914,0,3.465-1.955,3.467-4.364V14.364C41.6,11.955,40.047,10,38.133,10Z" transform="translate(-13.6)" fill="#557791"/>
    <path id="Path_142" data-name="Path 142" d="M45.467,18.182h-2.6A1,1,0,0,1,42,17.091,1,1,0,0,1,42.867,16h2.6a1,1,0,0,1,.867,1.091A1,1,0,0,1,45.467,18.182Zm0,2.727h-2.6A1,1,0,0,1,42,19.818a1,1,0,0,1,.867-1.091h2.6a1,1,0,0,1,.867,1.091A1,1,0,0,1,45.467,20.909Z" transform="translate(-22.667 -2.727)" fill="#e4e7eb"/>
  </g>
</svg>
