<svg xmlns="http://www.w3.org/2000/svg" width="12" height="12" viewBox="0 0 12 12">
  <g id="Layer_2" data-name="Layer 2" transform="translate(-1 -1)">
    <path id="Path_150" data-name="Path 150" d="M12.364,5.091H5.273V4h7.091a.545.545,0,0,1,.545.545h0A.545.545,0,0,1,12.364,5.091ZM9.636,8.909H2.545A.545.545,0,0,1,2,8.364H2a.545.545,0,0,1,.545-.545H9.636Zm2.727,3.818H5.273V11.636h7.091a.545.545,0,0,1,.545.545h0A.545.545,0,0,1,12.364,12.727Z" transform="translate(-0.455 -1.364)" fill="#fff"/>
    <path id="Path_151" data-name="Path 151" d="M3.182,5.364A2.182,2.182,0,1,1,5.364,3.182,2.182,2.182,0,0,1,3.182,5.364Zm0-3.273A1.091,1.091,0,1,0,4.273,3.182,1.091,1.091,0,0,0,3.182,2.091Zm7.636,7.091A2.182,2.182,0,1,1,13,7,2.182,2.182,0,0,1,10.818,9.182Zm0-3.273A1.091,1.091,0,1,0,11.909,7,1.091,1.091,0,0,0,10.818,5.909ZM3.182,13a2.182,2.182,0,1,1,2.182-2.182A2.182,2.182,0,0,1,3.182,13Zm0-3.273a1.091,1.091,0,1,0,1.091,1.091A1.091,1.091,0,0,0,3.182,9.727Z" fill="#fff"/>
    <circle id="Ellipse_21" data-name="Ellipse 21" cx="1.636" cy="1.636" r="1.636" transform="translate(1.545 1.545)" fill="#fff"/>
    <circle id="Ellipse_22" data-name="Ellipse 22" cx="1.636" cy="1.636" r="1.636" transform="translate(9.182 5.364)" fill="#fff"/>
    <circle id="Ellipse_23" data-name="Ellipse 23" cx="1.636" cy="1.636" r="1.636" transform="translate(1.682 9.114)" fill="#fff"/>
  </g>
</svg>
