<svg xmlns="http://www.w3.org/2000/svg" enable-background="new 0 0 64 64" viewBox="0 0 64 64" id="it-services"><linearGradient id="a" x1=".48" x2="63.52" y1="51.949" y2="51.949" gradientUnits="userSpaceOnUse"><stop offset="0" stop-color="#7b47d7"></stop><stop offset="1" stop-color="#5282e6"></stop></linearGradient><path fill="url(#a)" d="M62.42,46.14c-1.02-0.95-2.56-1.18-3.81-0.56l-14.96,7.08c0.01-0.13,0.02-0.26,0.03-0.4
		c0.08-1.73-0.79-3.39-2.28-4.35c-0.67-0.43-1.45-0.7-2.27-0.77l-6.53-0.6c-2.26-0.22-4.42-0.7-6.43-1.46
		c-0.68-0.25-1.27-0.49-1.83-0.76c-0.63-0.3-1.3-0.58-2.1-0.9c-1.5-0.57-3.07-0.83-4.67-0.77l-1.17,0.05l-0.05-1.16
		c-0.04-0.95-0.86-1.69-1.79-1.65L2.14,40.39c-0.94,0.04-1.68,0.84-1.65,1.79l0.8,20.16C1.33,63.27,2.1,64,3.03,64
		c0.02,0,0.03,0,0.05,0l12.42-0.5c0.46-0.01,0.89-0.21,1.2-0.55c0.31-0.34,0.47-0.78,0.46-1.24c0,0,0,0,0-0.01l-0.04-1.04l4.69,1.4
		c3.67,1.11,7.45,1.66,11.27,1.66c0.53,0,1.07-0.01,1.6-0.03l5.78-0.23c2.16-0.08,4.27-0.75,6.1-1.94l15.41-10.02
		c0.97-0.64,1.55-1.71,1.55-2.86C63.52,47.67,63.13,46.78,62.42,46.14z M15.98,62.28c-0.13,0.14-0.31,0.23-0.51,0.23l-12.42,0.5
		c-0.41,0.01-0.76-0.31-0.77-0.71l-0.8-20.15c-0.01-0.41,0.31-0.76,0.71-0.77l12.43-0.49c0.01,0,0.02,0,0.03,0
		c0.18,0,0.36,0.07,0.5,0.2c0.15,0.13,0.23,0.32,0.24,0.52l0.73,18.39c0,0.01,0,0.01,0,0.01c0,0.01,0,0.02,0,0.03l0.07,1.72
		C16.18,61.94,16.11,62.14,15.98,62.28z M61.43,50.68L46.02,60.7c-1.68,1.09-3.62,1.71-5.6,1.78l-5.78,0.23
		c-4.25,0.17-8.48-0.36-12.55-1.59l-5.02-1.5l-0.64-15.93l1.17-0.05c1.47-0.05,2.9,0.18,4.27,0.7c0.78,0.3,1.42,0.58,2.03,0.87
		c0.58,0.28,1.21,0.54,1.91,0.79c2.09,0.78,4.34,1.29,6.68,1.51l6.54,0.6c0.66,0.06,1.29,0.27,1.83,0.62
		c1.19,0.76,1.89,2.09,1.83,3.49c-0.02,0.21-0.04,0.44-0.07,0.67c-0.02,0.12-0.08,0.23-0.17,0.31c-0.01,0.01-0.02,0.01-0.03,0.02
		c-0.07,0.04-0.16,0.07-0.24,0.08l-8.69,0.35c-0.27,0.01-0.48,0.24-0.47,0.51c0.01,0.26,0.23,0.47,0.49,0.47c0.01,0,0.01,0,0.02,0
		l8.69-0.35c0.23-0.01,0.46-0.08,0.66-0.19c0,0,0.01-0.01,0.01-0.01c0,0,0,0,0.01,0l16.13-7.63c0.9-0.44,1.99-0.28,2.72,0.4
		c0.5,0.46,0.78,1.09,0.78,1.78C62.54,49.47,62.12,50.23,61.43,50.68z"></path><linearGradient id="b" x1="5.632" x2="12.468" y1="57.678" y2="57.678" gradientUnits="userSpaceOnUse"><stop offset="0" stop-color="#7b47d7"></stop><stop offset="1" stop-color="#5282e6"></stop></linearGradient><path fill="url(#b)" d="M8.91,54.26C8,54.3,7.16,54.69,6.54,55.36c-0.62,0.67-0.94,1.54-0.9,2.45c0.07,1.84,1.59,3.28,3.41,3.28
		c0.05,0,0.09,0,0.14,0c0.91-0.04,1.76-0.43,2.38-1.1c0.62-0.67,0.94-1.54,0.9-2.45c-0.04-0.91-0.43-1.76-1.1-2.38
		C10.7,54.55,9.84,54.23,8.91,54.26z M10.84,59.33c-0.44,0.48-1.04,0.75-1.69,0.78c-1.33,0.07-2.47-0.99-2.53-2.33
		c-0.03-0.65,0.2-1.27,0.64-1.75c0.44-0.48,1.04-0.75,1.69-0.78c0.03,0,0.07,0,0.1,0c0.61,0,1.19,0.23,1.65,0.65
		c0.48,0.44,0.75,1.04,0.78,1.69C11.51,58.23,11.28,58.85,10.84,59.33z"></path><linearGradient id="c" x1="23.134" x2="31.636" y1="4.172" y2="4.172" gradientUnits="userSpaceOnUse"><stop offset="0" stop-color="#7b47d7"></stop><stop offset="1" stop-color="#5282e6"></stop></linearGradient><path fill="url(#c)" d="M25.44,4.62c1.1,0,2.03-0.78,2.25-1.82h2.51c0.25,0,0.45,0.2,0.45,0.45v4.6c0,0.27,0.22,0.49,0.49,0.49
		s0.49-0.22,0.49-0.49v-4.6c0-0.79-0.64-1.43-1.43-1.43H27.7C27.47,0.78,26.55,0,25.44,0c-1.27,0-2.31,1.04-2.31,2.31
		C23.13,3.58,24.17,4.62,25.44,4.62z M25.44,0.98c0.73,0,1.32,0.59,1.32,1.32s-0.59,1.32-1.32,1.32s-1.32-0.59-1.32-1.32
		S24.71,0.98,25.44,0.98z"></path><linearGradient id="d" x1="39.314" x2="47.816" y1="4.172" y2="4.172" gradientUnits="userSpaceOnUse"><stop offset="0" stop-color="#7b47d7"></stop><stop offset="1" stop-color="#5282e6"></stop></linearGradient><path fill="url(#d)" d="M39.81,8.34c0.27,0,0.49-0.22,0.49-0.49v-4.6c0-0.25,0.2-0.45,0.45-0.45h2.51c0.23,1.04,1.15,1.82,2.25,1.82
		c1.27,0,2.31-1.04,2.31-2.31c0-1.27-1.04-2.31-2.31-2.31c-1.1,0-2.03,0.78-2.25,1.82h-2.51c-0.79,0-1.43,0.64-1.43,1.43v4.6
		C39.31,8.12,39.53,8.34,39.81,8.34z M45.51,0.98c0.73,0,1.32,0.59,1.32,1.32s-0.59,1.32-1.32,1.32c-0.73,0-1.32-0.59-1.32-1.32
		S44.78,0.98,45.51,0.98z"></path><linearGradient id="e" x1="23.134" x2="31.636" y1="37.197" y2="37.197" gradientUnits="userSpaceOnUse"><stop offset="0" stop-color="#7b47d7"></stop><stop offset="1" stop-color="#5282e6"></stop></linearGradient><path fill="url(#e)" d="M30.65,33.63v4.39c0,0.25-0.2,0.45-0.45,0.45H27.7c-0.23-1.04-1.15-1.82-2.25-1.82
		c-1.27,0-2.31,1.04-2.31,2.31c0,1.27,1.04,2.31,2.31,2.31c1.1,0,2.03-0.78,2.25-1.82h2.51c0.79,0,1.43-0.64,1.43-1.43v-4.39
		c0-0.27-0.22-0.49-0.49-0.49S30.65,33.35,30.65,33.63z M25.44,40.28c-0.73,0-1.32-0.59-1.32-1.32s0.59-1.32,1.32-1.32
		s1.32,0.59,1.32,1.32S26.17,40.28,25.44,40.28z"></path><linearGradient id="f" x1="39.314" x2="47.816" y1="37.197" y2="37.197" gradientUnits="userSpaceOnUse"><stop offset="0" stop-color="#7b47d7"></stop><stop offset="1" stop-color="#5282e6"></stop></linearGradient><path fill="url(#f)" d="M39.81,33.13c-0.27,0-0.49,0.22-0.49,0.49v4.39c0,0.79,0.64,1.43,1.43,1.43h2.51
		c0.23,1.04,1.15,1.82,2.25,1.82c1.27,0,2.31-1.04,2.31-2.31c0-1.27-1.04-2.31-2.31-2.31c-1.1,0-2.03,0.78-2.25,1.82h-2.51
		c-0.25,0-0.45-0.2-0.45-0.45v-4.39C40.3,33.35,40.08,33.13,39.81,33.13z M45.51,37.63c0.73,0,1.32,0.59,1.32,1.32
		s-0.59,1.32-1.32,1.32c-0.73,0-1.32-0.59-1.32-1.32S44.78,37.63,45.51,37.63z"></path><linearGradient id="g" x1="48.855" x2="56.106" y1="12.541" y2="12.541" gradientUnits="userSpaceOnUse"><stop offset="0" stop-color="#7b47d7"></stop><stop offset="1" stop-color="#5282e6"></stop></linearGradient><path fill="url(#g)" d="M49.35,16.79h3.51c0.79,0,1.43-0.64,1.43-1.43v-2.51c1.04-0.23,1.82-1.15,1.82-2.25
		c0-1.27-1.04-2.31-2.31-2.31c-1.27,0-2.31,1.04-2.31,2.31c0,1.1,0.78,2.03,1.82,2.25v2.51c0,0.25-0.2,0.45-0.45,0.45h-3.51
		c-0.27,0-0.49,0.22-0.49,0.49S49.08,16.79,49.35,16.79z M52.47,10.6c0-0.73,0.59-1.32,1.32-1.32s1.32,0.59,1.32,1.32
		c0,0.73-0.59,1.32-1.32,1.32S52.47,11.33,52.47,10.6z"></path><linearGradient id="h" x1="48.855" x2="56.106" y1="28.721" y2="28.721" gradientUnits="userSpaceOnUse"><stop offset="0" stop-color="#7b47d7"></stop><stop offset="1" stop-color="#5282e6"></stop></linearGradient><path fill="url(#h)" d="M51.49,30.66c0,1.27,1.04,2.31,2.31,2.31c1.27,0,2.31-1.04,2.31-2.31c0-1.1-0.78-2.03-1.82-2.25V25.9
		c0-0.79-0.64-1.43-1.43-1.43h-3.51c-0.27,0-0.49,0.22-0.49,0.49s0.22,0.49,0.49,0.49h3.51c0.25,0,0.45,0.2,0.45,0.45v2.51
		C52.27,28.64,51.49,29.56,51.49,30.66z M55.12,30.66c0,0.73-0.59,1.32-1.32,1.32s-1.32-0.59-1.32-1.32c0-0.73,0.59-1.32,1.32-1.32
		S55.12,29.93,55.12,30.66z"></path><linearGradient id="i" x1="14.844" x2="22.285" y1="12.541" y2="12.541" gradientUnits="userSpaceOnUse"><stop offset="0" stop-color="#7b47d7"></stop><stop offset="1" stop-color="#5282e6"></stop></linearGradient><path fill="url(#i)" d="M16.66,12.85v2.51c0,0.79,0.64,1.43,1.43,1.43h3.7c0.27,0,0.49-0.22,0.49-0.49s-0.22-0.49-0.49-0.49h-3.7
		c-0.25,0-0.45-0.2-0.45-0.45v-2.51c1.04-0.23,1.82-1.15,1.82-2.25c0-1.27-1.04-2.31-2.31-2.31c-1.27,0-2.31,1.04-2.31,2.31
		C14.84,11.7,15.62,12.63,16.66,12.85z M17.15,9.27c0.73,0,1.32,0.59,1.32,1.32c0,0.73-0.59,1.32-1.32,1.32
		c-0.73,0-1.32-0.59-1.32-1.32C15.83,9.87,16.42,9.27,17.15,9.27z"></path><linearGradient id="j" x1="14.844" x2="22.285" y1="28.721" y2="28.721" gradientUnits="userSpaceOnUse"><stop offset="0" stop-color="#7b47d7"></stop><stop offset="1" stop-color="#5282e6"></stop></linearGradient><path fill="url(#j)" d="M17.15,32.97c1.27,0,2.31-1.04,2.31-2.31c0-1.1-0.78-2.03-1.82-2.25V25.9c0-0.25,0.2-0.45,0.45-0.45h3.7
		c0.27,0,0.49-0.22,0.49-0.49s-0.22-0.49-0.49-0.49h-3.7c-0.79,0-1.43,0.64-1.43,1.43v2.51c-1.04,0.23-1.82,1.15-1.82,2.25
		C14.84,31.94,15.88,32.97,17.15,32.97z M17.15,29.34c0.73,0,1.32,0.59,1.32,1.32c0,0.73-0.59,1.32-1.32,1.32
		c-0.73,0-1.32-0.59-1.32-1.32C15.83,29.93,16.42,29.34,17.15,29.34z"></path><linearGradient id="k" x1="14.844" x2="56.106" y1="20.631" y2="20.631" gradientUnits="userSpaceOnUse"><stop offset="0" stop-color="#7b47d7"></stop><stop offset="1" stop-color="#5282e6"></stop></linearGradient><path fill="url(#k)" d="M17.15,22.8c1.1,0,2.03-0.78,2.25-1.82h2.4v1.63c0,0.35,0.28,0.63,0.63,0.63h1.93
		c0.28,1.2,0.75,2.34,1.4,3.39L24.41,28c-0.24,0.25-0.24,0.65,0,0.89l2.81,2.81c0.25,0.24,0.65,0.24,0.89,0l1.36-1.36
		c1.05,0.65,2.19,1.12,3.39,1.4v1.93c0,0.35,0.28,0.63,0.63,0.63h1.36v2.4c-1.04,0.23-1.82,1.15-1.82,2.25
		c0,1.27,1.04,2.31,2.31,2.31c1.27,0,2.31-1.04,2.31-2.31c0-1.1-0.78-2.03-1.82-2.25v-2.4h1.63c0.35,0,0.63-0.28,0.63-0.63v-1.93
		c1.2-0.28,2.34-0.75,3.39-1.4l1.36,1.36c0.25,0.25,0.65,0.25,0.9,0l2.81-2.81c0.25-0.25,0.25-0.65,0-0.9l-1.36-1.36
		c0.65-1.05,1.12-2.18,1.4-3.39h1.93c0.35,0,0.63-0.28,0.63-0.63v-1.63h2.4c0.23,1.04,1.15,1.82,2.25,1.82
		c1.27,0,2.31-1.04,2.31-2.31c0-1.27-1.04-2.31-2.31-2.31c-1.1,0-2.03,0.78-2.25,1.81h-2.4v-1.35c0-0.35-0.28-0.63-0.63-0.63h-1.93
		c-0.28-1.2-0.75-2.34-1.4-3.39l1.36-1.36c0.12-0.12,0.19-0.28,0.19-0.45c0-0.17-0.07-0.33-0.19-0.45l-2.81-2.81
		c-0.12-0.12-0.28-0.16-0.45-0.19c-0.17,0-0.33,0.07-0.45,0.19l-1.36,1.36c-1.05-0.65-2.18-1.12-3.39-1.4V7.6
		c0-0.35-0.28-0.63-0.63-0.63h-1.63v-2.4c1.04-0.23,1.82-1.15,1.82-2.25c0-1.27-1.04-2.31-2.31-2.31c-1.27,0-2.31,1.04-2.31,2.31
		c0,1.1,0.78,2.03,1.82,2.25v2.4h-1.36c-0.35,0-0.63,0.28-0.63,0.63v1.93c-1.2,0.28-2.34,0.75-3.39,1.4l-1.36-1.36
		c-0.25-0.25-0.65-0.25-0.9,0l-2.81,2.81c-0.25,0.25-0.24,0.65,0,0.89l1.36,1.36c-0.65,1.05-1.12,2.18-1.4,3.39h-1.93
		c-0.35,0-0.63,0.28-0.63,0.63V20h-2.4c-0.23-1.04-1.15-1.81-2.25-1.81c-1.27,0-2.31,1.04-2.31,2.31
		C14.84,21.77,15.88,22.8,17.15,22.8z M36.66,38.95c0,0.73-0.59,1.32-1.32,1.32c-0.73,0-1.32-0.59-1.32-1.32
		c0-0.73,0.59-1.32,1.32-1.32c0,0,0,0,0.01,0c0,0,0,0,0.01,0C36.07,37.63,36.66,38.22,36.66,38.95z M53.8,19.17
		c0.73,0,1.32,0.59,1.32,1.32c0,0.73-0.59,1.32-1.32,1.32s-1.32-0.59-1.32-1.32C52.47,19.76,53.07,19.17,53.8,19.17z M34.01,2.31
		c0-0.73,0.59-1.32,1.32-1.32c0.73,0,1.32,0.59,1.32,1.32c0,0.73-0.59,1.32-1.32,1.32c0,0,0,0-0.01,0c0,0,0,0-0.01,0
		C34.61,3.63,34.01,3.04,34.01,2.31z M22.79,19h1.86c0.3,0,0.56-0.21,0.62-0.5c0.27-1.28,0.76-2.48,1.48-3.57
		c0.16-0.25,0.13-0.58-0.08-0.79l-1.32-1.32l2.31-2.31l1.32,1.31c0.21,0.21,0.54,0.24,0.79,0.08c1.09-0.71,2.29-1.21,3.57-1.48
		c0.29-0.06,0.51-0.32,0.51-0.62V7.95h1.48c0,0,0.01,0,0.01,0s0.01,0,0.01,0h1.76v1.86c0,0.3,0.21,0.56,0.5,0.62
		c1.28,0.27,2.48,0.76,3.57,1.48c0.25,0.16,0.58,0.13,0.79-0.08l1.32-1.31l2.31,2.31l-1.32,1.32c-0.21,0.21-0.24,0.54-0.08,0.79
		c0.71,1.09,1.21,2.29,1.48,3.57C45.74,18.79,46,19,46.3,19h1.86v3.26H46.3c-0.3,0-0.56,0.21-0.62,0.5
		c-0.27,1.28-0.76,2.48-1.48,3.57c-0.16,0.25-0.13,0.58,0.08,0.79l1.32,1.32l-2.31,2.31l-1.32-1.32c-0.21-0.21-0.54-0.24-0.79-0.08
		c-1.09,0.72-2.29,1.21-3.57,1.48c-0.29,0.06-0.5,0.32-0.5,0.62v1.86h-1.76c0,0-0.01,0-0.01,0s-0.01,0-0.01,0h-1.48v-1.86
		c0-0.3-0.21-0.56-0.5-0.62c-1.28-0.27-2.48-0.76-3.57-1.48c-0.25-0.16-0.58-0.13-0.79,0.08l-1.32,1.32l-2.31-2.31l1.32-1.32
		c0.21-0.21,0.25-0.54,0.08-0.79c-0.71-1.09-1.21-2.29-1.48-3.57c-0.06-0.29-0.32-0.5-0.62-0.5h-1.86V19z M17.15,19.17
		c0.73,0,1.32,0.59,1.32,1.32c0,0.73-0.59,1.32-1.32,1.32c-0.73,0-1.32-0.59-1.32-1.32C15.83,19.76,16.42,19.17,17.15,19.17z"></path><linearGradient id="l" x1="27.539" x2="43.411" y1="20.631" y2="20.631" gradientUnits="userSpaceOnUse"><stop offset="0" stop-color="#7b47d7"></stop><stop offset="1" stop-color="#5282e6"></stop></linearGradient><path fill="url(#l)" d="M35.48,28.57c4.38,0,7.94-3.56,7.94-7.94c0-4.38-3.56-7.94-7.94-7.94c-4.38,0-7.94,3.56-7.94,7.94
		C27.54,25.01,31.1,28.57,35.48,28.57z M35.48,13.68c3.83,0,6.95,3.12,6.95,6.95c0,3.83-3.12,6.95-6.95,6.95s-6.95-3.12-6.95-6.95
		C28.52,16.8,31.64,13.68,35.48,13.68z"></path></svg>