<svg xmlns="http://www.w3.org/2000/svg" width="300" height="74.136" viewBox="0 0 300 74.136">
  <g id="Logo-png" transform="translate(0 -1.755)">
    <path id="Path_34684" data-name="Path 34684" d="M129.76,3.04Q113.01,39.19,95.78,75.1a.831.831,0,0,1-.71.48q-16.01.47-18.26.23-1.6-.16.04-.57a1.894,1.894,0,0,1,.44-.05q8.35.11,16.22.06a2.53,2.53,0,0,0,2.27-1.45q16.96-36.02,33.56-71.16a1.631,1.631,0,0,1,.25-.38Q130.73.95,129.76,3.04Z" fill="#fff"/>
    <path id="Path_34685" data-name="Path 34685" d="M158.69,2.2a1.767,1.767,0,0,1-.19.8q-5.49,12.21-11.68,25.35a1.565,1.565,0,0,1-1.4.9q-9.61.04-18.07.06a.815.815,0,0,1-.33-.07q-1.05-.45.23-.45,9.09.01,17.74-.1a1.57,1.57,0,0,0,1.4-.91L158.28,2.2Q158.65,1.43,158.69,2.2Z" fill="#fff"/>
    <path id="Path_34686" data-name="Path 34686" d="M188.63,2.23a1.816,1.816,0,0,1-.57,1.58q-5.62,12.47-11.53,24.8a.85.85,0,0,1-.71.48q-9.16.39-18.32.35a.992.992,0,0,1-.66-.21q-.5-.42.22-.42l17.71-.06a1.826,1.826,0,0,0,1.64-1.06L188.28,2.2Q188.55,1.63,188.63,2.23Z" fill="#fff"/>
    <path id="Path_34687" data-name="Path 34687" d="M239.34,12.19q.06,2.23-1.7.88a.942.942,0,0,1-.38-.82q.13-1.65,1.63-.82a.881.881,0,0,1,.45.76Z" fill="#fff"/>
    <path id="Path_34688" data-name="Path 34688" d="M7.44,14.56q-.11,1.88-1.84.79a1.773,1.773,0,0,0-.91-.3q-3.31.04-2.61,2.99a3.532,3.532,0,0,0,1.9,2.43,6.992,6.992,0,0,1,3.71,3.77,4.52,4.52,0,0,1-.64,4.24q-1.5,2.18-4.75,1.56a.793.793,0,0,1-.65-.57.989.989,0,0,1,.68-1.26,3.493,3.493,0,0,1,1.24-.09q2.75.11,2.31-2.72a3.359,3.359,0,0,0-1.82-2.58A8.4,8.4,0,0,1,0,18.94V16.69q1.9-5.15,6.98-2.85a.766.766,0,0,1,.46.72Z" fill="#fff"/>
    <path id="Path_34689" data-name="Path 34689" d="M89.5,13.15q2.32.04,1.24,1.64a.976.976,0,0,1-.8.41l-3.13.1a.685.685,0,0,0-.65.48,5.258,5.258,0,0,0,.04,3.9,1.575,1.575,0,0,0,1.57.89q3.27-.3,2.06,1.29a1.086,1.086,0,0,1-.83.36l-2.31.13a.586.586,0,0,0-.57.58l.1,5.62a1.106,1.106,0,0,1-.9,1.18q-1.89.2-1.32-2.23-.14-6.79.17-13.57a.575.575,0,0,1,.51-.55A37.523,37.523,0,0,1,89.5,13.15Z" fill="#fff"/>
    <path id="Path_34690" data-name="Path 34690" d="M27.77,13.5l5.43.04a.8.8,0,0,1,.73.46q.8,1.82-3.11,1.36a1.614,1.614,0,0,0-1.129.275,1.049,1.049,0,0,0-.461.885l.12,3.31a.6.6,0,0,0,.58.55l3,.19a.584.584,0,0,1,.375.155.419.419,0,0,1,.135.335q-.15,1.66-2.58,1.1a1.422,1.422,0,0,0-1.148.222,1.156,1.156,0,0,0-.492.968l.09,3.55a1.348,1.348,0,0,0,.556,1.039,1.666,1.666,0,0,0,1.234.3q3.18-.46,3.27.82a.5.5,0,0,1-.149.389.6.6,0,0,1-.411.171l-5.78.08a.747.747,0,0,1-.551-.237.848.848,0,0,1-.229-.583V14.03A.525.525,0,0,1,27.77,13.5Z" fill="#fff"/>
    <path id="Path_34691" data-name="Path 34691" d="M55.31,13.5q2.69,0,5.19.05,2.02.03,1,1.49a.972.972,0,0,1-.81.45l-2.8-.15a1.182,1.182,0,0,0-.751.208.721.721,0,0,0-.319.572l.03,3.7a.6.6,0,0,0,.58.56l3,.19a.584.584,0,0,1,.375.155.419.419,0,0,1,.135.335q-.15,1.66-2.58,1.1a1.422,1.422,0,0,0-1.148.222,1.156,1.156,0,0,0-.492.968l.09,3.55a1.348,1.348,0,0,0,.556,1.039,1.666,1.666,0,0,0,1.234.3q3.18-.46,3.27.82a.5.5,0,0,1-.149.389.6.6,0,0,1-.411.171l-5.78.08a.747.747,0,0,1-.551-.237.848.848,0,0,1-.229-.583V14.06a.56.56,0,0,1,.56-.56Z" fill="#fff"/>
    <path id="Path_34692" data-name="Path 34692" d="M241.43,17.82l.23,8.99a.53.53,0,0,0,.52.52l19.93.15a.786.786,0,0,0,.6-.272.991.991,0,0,0,.243-.668l-.05-10.11a1.219,1.219,0,0,1,.38-.87q1.55-1.59,1.52,1.19-.05,5.12-.05,10.17a.58.58,0,0,0,.58.58h16.53a.845.845,0,0,0,.631-.279.866.866,0,0,0,.219-.661,52.469,52.469,0,0,1-.02-10.23,1.539,1.539,0,0,1,.41-1.04.881.881,0,0,1,.89-.19.711.711,0,0,1,.45.71l.12,11.13a.52.52,0,0,0,.51.53l4.54.04a.7.7,0,0,0,.516-.232.8.8,0,0,0,.2-.558q-.16-5.53-.02-10.41.05-1.61,1.41-1.19a.728.728,0,0,1,.46.7l.23,11.24a.513.513,0,0,0,.53.47l3.93.09a1.359,1.359,0,0,0,.974-.376,1.126,1.126,0,0,0,.346-.914,51.954,51.954,0,0,1,.06-10.58q.16-1.51,1.75-.44V29.56q-45.38.46-90.24-.05a2.76,2.76,0,0,1-2.69-1.81q-1.66-3.9,1.38-6.3a1.618,1.618,0,0,1,1.21-.42q.98.11.58,1.23a2.575,2.575,0,0,1-.7.92q-2.05,1.88-.09,3.95a1.178,1.178,0,0,0,.86.36l24.07.06a.63.63,0,0,0,.63-.64q-.04-3.7.01-6.91a5.884,5.884,0,0,1,1.22-3.92q2.24-2.52,4.9.88a1.524,1.524,0,0,1,.29.91Zm-1.673.413A1.43,1.43,0,0,0,238.33,16.8h-.1a1.43,1.43,0,0,0-1.433,1.427l-.014,8.1a1.43,1.43,0,0,0,1.427,1.432h.1a1.43,1.43,0,0,0,1.433-1.428Z" fill="#fff"/>
    <rect id="Rectangle_18222" data-name="Rectangle 18222" width="2.96" height="10.96" rx="1.43" transform="translate(236.8 16.797) rotate(0.1)" fill="rgba(46,41,13,0)"/>
    <path id="Path_34693" data-name="Path 34693" d="M263.18,32.79q-.52,1.5-1.61.34a.927.927,0,0,1-.21-.87q.54-2.09,1.69-.37a1.022,1.022,0,0,1,.13.9Z" fill="#fff"/>
    <path id="Path_34694" data-name="Path 34694" d="M266.23,33.09a.94.94,0,0,1-1.51.47q-1.91-1.57.22-2.11Q266.83,30.97,266.23,33.09Z" fill="#fff"/>
  </g>
</svg>
