<svg xmlns="http://www.w3.org/2000/svg" width="1533.305" height="378.91" viewBox="0 0 1533.305 378.91">
  <g id="seefbig" transform="translate(0 -1.755)">
    <path id="Path_34684" data-name="Path 34684" d="M350.686,8.322q-85.609,184.763-173.672,368.3a4.246,4.246,0,0,1-3.629,2.453q-81.827,2.4-93.327,1.176-8.178-.818.2-2.913a9.679,9.679,0,0,1,2.249-.256q42.677.562,82.9.307a12.931,12.931,0,0,0,11.6-7.411Q263.7,185.878,348.54,6.277a8.337,8.337,0,0,1,1.278-1.942Q355.644-2.36,350.686,8.322Z" transform="translate(312.519 0)" fill="#222"/>
    <path id="Path_34685" data-name="Path 34685" d="M290.831,3.783a9.034,9.034,0,0,1-.971,4.089q-28.059,62.406-59.7,129.564a8,8,0,0,1-7.155,4.6q-49.117.2-92.356.307a4.167,4.167,0,0,1-1.687-.358q-5.366-2.3,1.176-2.3,46.459.051,90.669-.511a8.025,8.025,0,0,0,7.155-4.651l60.77-130.74Q290.627-.153,290.831,3.783Z" transform="translate(520.236 0.246)" fill="#222"/>
    <path id="Path_34686" data-name="Path 34686" d="M320.162,3.495q.664,4.344-2.913,8.075Q288.525,75.3,258.318,138.324a4.346,4.346,0,0,1-3.629,2.453q-46.817,1.993-93.634,1.789a5.071,5.071,0,0,1-3.373-1.073q-2.556-2.147,1.124-2.147l90.516-.307a9.332,9.332,0,0,0,8.382-5.418L318.373,3.342Q319.753.428,320.162,3.495Z" transform="translate(643.929 0.687)" fill="#222"/>
    <path id="Path_34687" data-name="Path 34687" d="M247.9,16.456q.307,11.4-8.689,4.5a4.813,4.813,0,0,1-1.942-4.191q.664-8.433,8.331-4.191a4.5,4.5,0,0,1,2.3,3.884Z" transform="translate(975.367 38.631)" fill="#222"/>
    <path id="Path_34688" data-name="Path 34688" d="M38.026,20.439q-.562,9.609-9.4,4.038a9.064,9.064,0,0,0-4.651-1.533q-16.917.2-13.34,15.282a18.051,18.051,0,0,0,9.711,12.42Q35.419,58.465,39.3,69.914q3.884,11.3-3.271,21.671-7.667,11.142-24.277,7.973a4.051,4.051,0,0,1-3.322-2.913q-1.022-4.7,3.475-6.44,1.687-.664,6.338-.46,14.055.562,11.806-13.9a17.169,17.169,0,0,0-9.3-13.186Q4.651,54.018,0,42.825v-11.5Q9.711,5,35.675,16.759a3.915,3.915,0,0,1,2.351,3.68Z" transform="translate(0 46.761)" fill="#222"/>
    <path id="Path_34689" data-name="Path 34689" d="M112.654,13.171q11.858.2,6.338,8.382a4.989,4.989,0,0,1-4.089,2.1l-16,.511a3.5,3.5,0,0,0-3.322,2.453q-3.68,11.858.2,19.933a8.05,8.05,0,0,0,8.024,4.549q16.713-1.533,10.529,6.593a5.549,5.549,0,0,1-4.242,1.84l-11.806.664a2.994,2.994,0,0,0-2.913,2.964l.511,28.724c.059,3.126-1.938,5.744-4.6,6.031q-9.66,1.022-6.747-11.4-.715-34.7.869-69.356a2.939,2.939,0,0,1,2.607-2.811A191.783,191.783,0,0,1,112.654,13.171Z" transform="translate(344.782 46.823)" fill="#222"/>
    <path id="Path_34690" data-name="Path 34690" d="M29.908,13.5l27.753.2a4.1,4.1,0,0,1,3.731,2.351q4.089,9.3-15.9,6.951a8.247,8.247,0,0,0-5.771,1.407,5.363,5.363,0,0,0-2.356,4.522l.613,16.917a3.077,3.077,0,0,0,2.964,2.811l15.333.971a2.983,2.983,0,0,1,1.915.794,2.139,2.139,0,0,1,.691,1.71q-.767,8.484-13.186,5.622A7.269,7.269,0,0,0,39.833,58.9a5.909,5.909,0,0,0-2.515,4.947l.46,18.144A6.889,6.889,0,0,0,40.619,87.3a8.512,8.512,0,0,0,6.308,1.536Q63.18,86.485,63.64,93.027a2.537,2.537,0,0,1-.761,1.988,3.065,3.065,0,0,1-2.1.874L31.237,96.3a3.816,3.816,0,0,1-2.815-1.209,4.334,4.334,0,0,1-1.172-2.982v-75.9A2.684,2.684,0,0,1,29.908,13.5Z" transform="translate(112.025 48.283)" fill="#222"/>
    <path id="Path_34691" data-name="Path 34691" d="M57.612,13.5q13.749,0,26.526.256,10.324.153,5.111,7.615a4.968,4.968,0,0,1-4.14,2.3L70.8,22.9a6.04,6.04,0,0,0-3.839,1.062,3.684,3.684,0,0,0-1.63,2.924L65.483,45.8a3.053,3.053,0,0,0,2.964,2.862l15.333.971a2.983,2.983,0,0,1,1.915.794,2.139,2.139,0,0,1,.691,1.71q-.767,8.484-13.186,5.622A7.268,7.268,0,0,0,67.333,58.9a5.909,5.909,0,0,0-2.515,4.947l.46,18.144A6.889,6.889,0,0,0,68.119,87.3a8.512,8.512,0,0,0,6.308,1.536q16.253-2.351,16.713,4.191a2.538,2.538,0,0,1-.761,1.988,3.065,3.065,0,0,1-2.1.874L58.737,96.3a3.816,3.816,0,0,1-2.815-1.209,4.334,4.334,0,0,1-1.172-2.982V16.362A2.862,2.862,0,0,1,57.612,13.5Z" transform="translate(225.078 48.283)" fill="#222"/>
    <path id="Path_34692" data-name="Path 34692" d="M385.095,29.963l1.176,45.948a2.709,2.709,0,0,0,2.658,2.658l101.862.767a4.019,4.019,0,0,0,3.049-1.39,5.063,5.063,0,0,0,1.244-3.415l-.256-51.672a6.232,6.232,0,0,1,1.942-4.447q7.922-8.127,7.769,6.082-.255,26.168-.256,51.979a2.964,2.964,0,0,0,2.965,2.964h84.485a4.317,4.317,0,0,0,3.226-1.426,4.422,4.422,0,0,0,1.118-3.378,268.172,268.172,0,0,1-.1-52.286q.357-3.782,2.1-5.315a4.5,4.5,0,0,1,4.549-.971,3.633,3.633,0,0,1,2.3,3.629l.614,56.886a2.659,2.659,0,0,0,2.606,2.709l23.2.2a3.56,3.56,0,0,0,2.639-1.186,4.081,4.081,0,0,0,1.041-2.852q-.818-28.264-.1-53.206.255-8.229,7.207-6.082a3.719,3.719,0,0,1,2.351,3.578l1.175,57.448a2.623,2.623,0,0,0,2.709,2.4l20.086.46a6.946,6.946,0,0,0,4.979-1.922,5.757,5.757,0,0,0,1.767-4.671,265.54,265.54,0,0,1,.307-54.075q.818-7.718,8.944-2.249V89.966q-231.937,2.351-461.218-.256-9.865-.153-13.749-9.251Q201,60.527,216.534,48.26a8.268,8.268,0,0,1,6.184-2.147q5.009.562,2.964,6.287a13.165,13.165,0,0,1-3.578,4.7q-10.478,9.609-.46,20.189a6.02,6.02,0,0,0,4.4,1.84l123.022.307a3.22,3.22,0,0,0,3.22-3.271q-.2-18.911.051-35.317.2-13.237,6.236-20.035,11.449-12.88,25.044,4.5a7.792,7.792,0,0,1,1.482,4.651Zm-8.55,2.109a7.309,7.309,0,0,0-7.294-7.322h-.511a7.309,7.309,0,0,0-7.324,7.3l-.071,41.4a7.309,7.309,0,0,0,7.293,7.322h.511a7.309,7.309,0,0,0,7.324-7.3Z" transform="translate(848.858 53.899)" fill="#222"/>
    <rect id="Rectangle_18222" data-name="Rectangle 18222" width="15.129" height="56.017" rx="1.43" transform="translate(1210.286 78.636) rotate(0.1)" fill="rgba(46,41,13,0)"/>
    <path id="Path_34693" data-name="Path 34693" d="M270.791,39.682q-2.658,7.666-8.229,1.738a4.74,4.74,0,0,1-1.074-4.447q2.761-10.682,8.638-1.891a5.223,5.223,0,0,1,.664,4.6Z" transform="translate(1074.326 120.692)" fill="#222"/>
    <path id="Path_34694" data-name="Path 34694" d="M276.15,40.2a4.8,4.8,0,0,1-7.717,2.4q-9.762-8.024,1.124-10.784Q279.216,29.361,276.15,40.2Z" transform="translate(1084.556 121.711)" fill="#222"/>
  </g>
</svg>
