<svg xmlns="http://www.w3.org/2000/svg" viewBox="0 0 37 46.25" x="0px" y="0px"><g data-name="Ebene 2"><g data-name="Ebene 1"><path d="M36.08415,10.63719h-8.533a.91609.91609,0,0,1-.91585-.91585V.91585A.91608.91608,0,0,1,27.55115,0h8.533A.91608.91608,0,0,1,37,.91585V9.72134A.91609.91609,0,0,1,36.08415,10.63719ZM28.467,8.80549h6.70131V1.83169H28.467Z"/><path d="M22.7668,10.63719H14.2332a.91609.91609,0,0,1-.91585-.91585V.91585A.91609.91609,0,0,1,14.2332,0h8.5336a.91609.91609,0,0,1,.91585.91585V9.72134A.91609.91609,0,0,1,22.7668,10.63719Zm-7.61775-1.8317H21.851V1.83169h-6.7019Z"/><path d="M9.44885,10.63719H.91585A.91609.91609,0,0,1,0,9.72134V.91585A.91608.91608,0,0,1,.91585,0h8.533a.91608.91608,0,0,1,.91585.91585V9.72134A.91609.91609,0,0,1,9.44885,10.63719ZM1.83169,8.80549H8.533V1.83169H1.83169Z"/><path d="M36.08415,23.81919h-8.533a.91608.91608,0,0,1-.91585-.91585V14.09666a.91608.91608,0,0,1,.91585-.91585h8.533A.91608.91608,0,0,1,37,14.09666v8.80668A.91608.91608,0,0,1,36.08415,23.81919ZM28.467,21.98749h6.70131v-6.975H28.467Z"/><path d="M22.7668,23.81919H14.2332a.91609.91609,0,0,1-.91585-.91585V14.09666a.91609.91609,0,0,1,.91585-.91585h8.5336a.91609.91609,0,0,1,.91585.91585v8.80668A.91609.91609,0,0,1,22.7668,23.81919Zm-7.61775-1.8317H21.851v-6.975h-6.7019Z"/><path d="M9.44885,23.81919H.91585A.91608.91608,0,0,1,0,22.90334V14.09666a.91608.91608,0,0,1,.91585-.91585h8.533a.91608.91608,0,0,1,.91585.91585v8.80668A.91608.91608,0,0,1,9.44885,23.81919Zm-7.61716-1.8317H8.533v-6.975H1.83169Z"/><path d="M36.08415,37h-8.533a.91608.91608,0,0,1-.91585-.91585V27.27747a.91608.91608,0,0,1,.91585-.91585h8.533A.91608.91608,0,0,1,37,27.27747v8.80668A.91608.91608,0,0,1,36.08415,37ZM28.467,35.16831h6.70131v-6.975H28.467Z"/><path d="M22.7668,37H14.2332a.91609.91609,0,0,1-.91585-.91585V27.27747a.91609.91609,0,0,1,.91585-.91585h8.5336a.91609.91609,0,0,1,.91585.91585v8.80668A.91609.91609,0,0,1,22.7668,37Zm-7.61775-1.83169H21.851v-6.975h-6.7019Z"/><path d="M9.44885,37H.91585A.91608.91608,0,0,1,0,36.08415V27.27747a.91608.91608,0,0,1,.91585-.91585h8.533a.91608.91608,0,0,1,.91585.91585v8.80668A.91608.91608,0,0,1,9.44885,37ZM1.83169,35.16831H8.533v-6.975H1.83169Z"/></g></g><text x="0" y="52" fill="#000000" font-size="5px" font-weight="bold" font-family="'Helvetica Neue', Helvetica, Arial-Unicode, Arial, Sans-serif">Created by Zan</text><text x="0" y="57" fill="#000000" font-size="5px" font-weight="bold" font-family="'Helvetica Neue', Helvetica, Arial-Unicode, Arial, Sans-serif">from the Noun Project</text></svg>