<svg xmlns="http://www.w3.org/2000/svg" width="20" height="20" viewBox="0 0 20 20">
  <path id="_89_receipt_Check_Invoice_Money_Notes" data-name="89 receipt, Check, Invoice, Money, Notes" d="M7.111,18.364V7H11a.513.513,0,0,0,.556-.455V2.909H22.111a.513.513,0,0,1,.556.455V14.273h1.111V3.364A1.538,1.538,0,0,0,22.111,2H11a.614.614,0,0,0-.411.155h0L6.144,6.245h0a.413.413,0,0,0-.144.3V18.364a1.538,1.538,0,0,0,1.667,1.364h8.3v-.909h-8.3A.513.513,0,0,1,7.111,18.364ZM7.794,6.091l2.65-2.441V6.091ZM9.333,8.364h6.111v.909H9.333ZM15.444,7H12.667V6.091h2.778Zm5,4.545H9.333v-.909H20.444Zm0,2.273H9.333v-.909H20.444ZM9.333,15.182h7.778v.909H9.333Zm8.889-9.091v.455h1.667A.513.513,0,0,1,20.444,7V8.364a.513.513,0,0,1-.556.455h-.556v.455H18.222V8.818H17.111V7.909h2.222V7.455H17.667A.513.513,0,0,1,17.111,7V5.636a.513.513,0,0,1,.556-.455h.556V4.727h1.111v.455h1.111v.909Zm3.333,8.636c-2.455,0-4.444,1.628-4.444,3.636S19.1,22,21.556,22,26,20.372,26,18.364,24.01,14.727,21.556,14.727Zm0,6.364c-1.841,0-3.333-1.221-3.333-2.727s1.492-2.727,3.333-2.727,3.333,1.221,3.333,2.727S23.4,21.091,21.556,21.091Zm1.272-3.959.789.645L21.394,19.6a.646.646,0,0,1-.789,0l-1.111-.909.789-.645.717.591Z" transform="translate(-6 -2)" fill="#fff"/>
</svg>
