<svg xmlns="http://www.w3.org/2000/svg" width="20" height="20" viewBox="0 0 20 20">
  <path id="settings_1_" data-name="settings (1)" d="M7.357,1030.824a.215.215,0,0,0-.223.206v1.154a5.148,5.148,0,0,0-1.474.561l-.882-.814a.236.236,0,0,0-.316,0L3.2,1033.1a.2.2,0,0,0,0,.291l.884.816a4.35,4.35,0,0,0-.61,1.355H2.223a.216.216,0,0,0-.223.207v1.648a.215.215,0,0,0,.223.206h1.25a4.346,4.346,0,0,0,.608,1.36l-.882.814a.2.2,0,0,0,0,.292l1.263,1.166a.236.236,0,0,0,.316,0l.884-.816a5.147,5.147,0,0,0,1.472.564v1.153a.215.215,0,0,0,.223.206H9.143a.215.215,0,0,0,.223-.206V1041a5.141,5.141,0,0,0,1.474-.561l.882.814a.236.236,0,0,0,.316,0l1.263-1.166a.2.2,0,0,0,0-.292l-.884-.816a4.349,4.349,0,0,0,.61-1.359h1.249a.215.215,0,0,0,.223-.206v-1.648a.215.215,0,0,0-.223-.206h-1.25a4.348,4.348,0,0,0-.608-1.36l.882-.814a.2.2,0,0,0,0-.291l-1.263-1.166a.236.236,0,0,0-.316,0l-.884.816a5.15,5.15,0,0,0-1.472-.563v-1.153a.215.215,0,0,0-.223-.206H7.357Zm.893,2.885a2.894,2.894,0,1,1,0,5.769,2.894,2.894,0,1,1,0-5.769Zm8.2-3.97a.13.13,0,0,0-.1.16l.2.706a3.1,3.1,0,0,0-.8.566l-.684-.365a.146.146,0,0,0-.193.048l-.566.9a.125.125,0,0,0,.052.178l.686.365a2.665,2.665,0,0,0-.132.923l-.764.189a.13.13,0,0,0-.1.16l.293,1.008a.142.142,0,0,0,.173.092l.765-.189a2.908,2.908,0,0,0,.613.74l-.4.632a.125.125,0,0,0,.052.178l.98.522a.148.148,0,0,0,.193-.048l.4-.633a3.356,3.356,0,0,0,1,.122l.2.705a.143.143,0,0,0,.173.092l1.092-.27a.13.13,0,0,0,.1-.16l-.2-.706a3.094,3.094,0,0,0,.8-.566l.684.365a.147.147,0,0,0,.193-.048l.566-.9a.125.125,0,0,0-.052-.178l-.686-.366a2.663,2.663,0,0,0,.132-.923l.764-.189a.13.13,0,0,0,.1-.16l-.293-1.008a.143.143,0,0,0-.173-.092l-.765.189a2.9,2.9,0,0,0-.613-.74l.4-.632a.125.125,0,0,0-.052-.178l-.98-.522a.146.146,0,0,0-.193.048l-.4.633a3.36,3.36,0,0,0-1-.122l-.2-.705a.142.142,0,0,0-.173-.092l-1.092.27Zm1.058,1.63a2,2,0,0,1,2.424,1.292,1.817,1.817,0,0,1-1.4,2.238,2,2,0,0,1-2.424-1.292,1.817,1.817,0,0,1,1.4-2.237Zm-5.751-9.008a.158.158,0,0,0-.164.151v.846a3.773,3.773,0,0,0-1.081.411l-.647-.6a.173.173,0,0,0-.231,0l-.927.855a.142.142,0,0,0,0,.213l.648.6a3.189,3.189,0,0,0-.448,1H8a.157.157,0,0,0-.164.151v1.209a.157.157,0,0,0,.164.151h.917a3.187,3.187,0,0,0,.446,1l-.647.6a.143.143,0,0,0,0,.214l.927.855a.173.173,0,0,0,.231,0l.648-.6a3.771,3.771,0,0,0,1.079.413v.846a.157.157,0,0,0,.164.151h1.31a.158.158,0,0,0,.164-.151v-.846a3.773,3.773,0,0,0,1.081-.411l.647.6a.173.173,0,0,0,.231,0l.927-.855a.143.143,0,0,0,0-.214l-.648-.6a3.19,3.19,0,0,0,.448-1h.916a.158.158,0,0,0,.164-.151v-1.209a.158.158,0,0,0-.164-.151h-.917a3.188,3.188,0,0,0-.446-1l.647-.6a.142.142,0,0,0,0-.213l-.927-.855a.173.173,0,0,0-.231,0l-.648.6a3.773,3.773,0,0,0-1.079-.413v-.846a.157.157,0,0,0-.164-.151Zm.655,2.115a2.122,2.122,0,1,1,0,4.231,2.122,2.122,0,1,1,0-4.231Z" transform="translate(-2 -1022.36)" fill="#fff"/>
</svg>
