<svg xmlns="http://www.w3.org/2000/svg" width="20" height="20" viewBox="0 0 20 20">
  <g id="Group_40920" data-name="Group 40920" transform="translate(0 -0.5)">
    <path id="logout" d="M4,12a.5.5,0,0,0,.5.5h8.793l-2.647,2.646a.5.5,0,1,0,.707.707l3.5-3.5h0a.5.5,0,0,0,0-.707l-3.5-3.5a.5.5,0,0,0-.707.707L13.293,11.5H4.5A.5.5,0,0,0,4,12Z" transform="translate(-4 -1.5)" fill="#fff"/>
    <path id="logout-2" data-name="logout" d="M20.875,2H7.125C5.4,2,4,3.12,4,4.5v4a.573.573,0,0,0,.625.5.573.573,0,0,0,.625-.5v-4A1.721,1.721,0,0,1,7.125,3h13.75A1.721,1.721,0,0,1,22.75,4.5v15A1.721,1.721,0,0,1,20.875,21H7.125A1.721,1.721,0,0,1,5.25,19.5v-4a.573.573,0,0,0-.625-.5A.573.573,0,0,0,4,15.5v4C4,20.88,5.4,22,7.125,22h13.75C22.6,22,24,20.88,24,19.5V4.5C24,3.12,22.6,2,20.875,2Z" transform="translate(-4 -1.5)" fill="#fff"/>
  </g>
</svg>
