<svg xmlns="http://www.w3.org/2000/svg" width="20" height="20" viewBox="0 0 20 20">
  <path id="bug" d="M5.793.528a.73.73,0,0,1,.89.43L7.1,2.192a7.8,7.8,0,0,1,7.8,0L15.316.958a.73.73,0,0,1,.891-.43.637.637,0,0,1,.476.8L16.1,3.077A6.127,6.127,0,0,1,18.143,7.6h.714a.682.682,0,0,0,.714-.645V6.306a.718.718,0,0,1,1.429,0v.645a2.047,2.047,0,0,1-2.143,1.935h-.714v1.29h2.143a.649.649,0,1,1,0,1.29H18.143v1.29h.714A2.047,2.047,0,0,1,21,14.693v.645a.718.718,0,0,1-1.429,0v-.645a.682.682,0,0,0-.714-.645h-.714c0,3.563-3.2,6.452-7.143,6.452s-7.143-2.888-7.143-6.452H3.143a.682.682,0,0,0-.714.645v.645a.682.682,0,0,1-.714.645A.682.682,0,0,1,1,15.339v-.645a2.047,2.047,0,0,1,2.143-1.935h.714v-1.29H1.714a.649.649,0,1,1,0-1.29H3.857V8.887H3.143A2.047,2.047,0,0,1,1,6.952V6.306a.682.682,0,0,1,.714-.645.682.682,0,0,1,.714.645v.645a.682.682,0,0,0,.714.645h.714A6.133,6.133,0,0,1,5.9,3.077L5.317,1.332a.637.637,0,0,1,.476-.8ZM5.286,8.887v5.161a5.374,5.374,0,0,0,5,5.123V8.887Zm6.429,0V19.171a5.374,5.374,0,0,0,5-5.123V8.887Zm5-1.29a4.942,4.942,0,0,0-1.906-3.848,6.18,6.18,0,0,0-7.619,0A4.942,4.942,0,0,0,5.286,7.6Z" transform="translate(-1 -0.5)" fill="#fff"/>
</svg>
