<svg xmlns="http://www.w3.org/2000/svg" width="21" height="24" viewBox="0 0 21 24">
  <path id="document" d="M3.5,21H5v1.5A1.5,1.5,0,0,0,6.5,24h15A1.5,1.5,0,0,0,23,22.5V4.5A1.5,1.5,0,0,0,21.5,3H20V1.5A1.5,1.5,0,0,0,18.5,0H3.5A1.5,1.5,0,0,0,2,1.5v18A1.5,1.5,0,0,0,3.5,21Zm18-16.5v18H6.5V21h12A1.5,1.5,0,0,0,20,19.5V4.5ZM16.25,3a.75.75,0,0,1,0,1.5H10.187a.75.75,0,0,1,0-1.5ZM5.687,7.5H16.25a.75.75,0,0,1,0,1.5H5.687a.75.75,0,0,1,0-1.5Zm0,4.5H16.25a.75.75,0,0,1,0,1.5H5.687a.75.75,0,0,1,0-1.5Zm0,4.5H16.25a.75.75,0,0,1,0,1.5H5.687a.75.75,0,0,1,0-1.5Z" transform="translate(-2)" fill="#557791"/>
</svg>
