<svg xmlns="http://www.w3.org/2000/svg" width="24" height="24" viewBox="0 0 24 24">
  <g id="document-layout" transform="translate(-2 -4)">
    <path id="Path_3" data-name="Path 3" d="M22.8,9H13.2A1.375,1.375,0,0,1,12,7.5,1.375,1.375,0,0,1,13.2,6h9.6A1.375,1.375,0,0,1,24,7.5,1.375,1.375,0,0,1,22.8,9Zm0,6H13.2A1.375,1.375,0,0,1,12,13.5,1.375,1.375,0,0,1,13.2,12h9.6A1.375,1.375,0,0,1,24,13.5,1.375,1.375,0,0,1,22.8,15Z" transform="translate(2 1)" fill="#cbd2d9"/>
    <rect id="Rectangle_11" data-name="Rectangle 11" width="9.6" height="12" rx="1" transform="translate(2 4)" fill="#557791"/>
    <path id="Path_4" data-name="Path 4" d="M24.8,17H3.2A1.375,1.375,0,0,1,2,15.5,1.375,1.375,0,0,1,3.2,14H24.8A1.375,1.375,0,0,1,26,15.5,1.375,1.375,0,0,1,24.8,17Zm-9.6,6H3.2A1.375,1.375,0,0,1,2,21.5,1.375,1.375,0,0,1,3.2,20h12a1.375,1.375,0,0,1,1.2,1.5A1.375,1.375,0,0,1,15.2,23Z" transform="translate(0 5)" fill="#cbd2d9"/>
  </g>
</svg>
