<svg xmlns="http://www.w3.org/2000/svg" width="24" height="24" viewBox="0 0 24 24">
  <g id="filing-time" transform="translate(-7.5 -7.5)">
    <ellipse id="Ellipse_8" data-name="Ellipse 8" cx="11.032" cy="11.058" rx="11.032" ry="11.058" transform="translate(9.435 9.383)" fill="#557791"/>
    <ellipse id="Ellipse_9" data-name="Ellipse 9" cx="9.468" cy="9.49" rx="9.468" ry="9.49" transform="translate(11 10.951)" fill="#fff"/>
    <path id="Path_23" data-name="Path 23" d="M82.309,73.72a.362.362,0,0,1-.362-.362V71.84a.362.362,0,1,1,.724,0v1.518a.362.362,0,0,1-.362.362Zm0,17.462a.362.362,0,0,1-.362-.362V89.3a.362.362,0,1,1,.724,0V90.82a.362.362,0,0,1-.362.362Zm-7.953-9.49H72.842a.362.362,0,0,1,0-.724h1.515a.362.362,0,0,1,0,.724Zm17.42,0H90.262a.362.362,0,0,1,0-.724h1.515a.362.362,0,0,1,0,.724ZM76.686,76.055a.361.361,0,0,1-.256-.106l-1.071-1.074a.362.362,0,0,1,.513-.512l1.071,1.074a.362.362,0,0,1-.256.618ZM89,88.4a.361.361,0,0,1-.256-.106l-1.071-1.074a.362.362,0,0,1,.513-.512l1.071,1.074A.362.362,0,0,1,89,88.4Zm-13.389,0a.362.362,0,0,1-.256-.618l1.071-1.074a.362.362,0,1,1,.513.512L75.871,88.3A.361.361,0,0,1,75.615,88.4ZM87.933,76.055a.362.362,0,0,1-.256-.618l1.071-1.074a.362.362,0,0,1,.513.512l-1.071,1.074A.361.361,0,0,1,87.933,76.055Zm-5.624,4.878a.362.362,0,0,1-.362-.362V75.636a.362.362,0,1,1,.724,0V80.57a.362.362,0,0,1-.362.362Zm4.166.759H83.067a.362.362,0,0,1,0-.724h3.408a.362.362,0,0,1,0,.724Z" transform="translate(-61.842 -60.888)" fill="#cbd2d9"/>
    <ellipse id="Ellipse_10" data-name="Ellipse 10" cx="1.196" cy="1.199" rx="1.196" ry="1.199" transform="translate(19.271 19.242)" fill="#557791"/>
    <path id="Path_24" data-name="Path 24" d="M268.9,250.666a1.193,1.193,0,0,0-.362.056,1.2,1.2,0,0,1,0,2.286,1.2,1.2,0,1,0,.362-2.342Z" transform="translate(-248.434 -231.424)" fill="#557791"/>
    <path id="Path_28" data-name="Path 28" d="M59.692,49.93a10.9,10.9,0,0,0-2.21.634,4.395,4.395,0,0,1,.772,1.379,9.368,9.368,0,0,1,2.113-.53A6.51,6.51,0,0,0,59.692,49.93ZM50.72,58.99a6.506,6.506,0,0,0,1.484.663,9.417,9.417,0,0,1,.512-2.117,4.369,4.369,0,0,1-1.381-.765,10.978,10.978,0,0,0-.615,2.219Z" transform="translate(-41.133 -40.381)" fill="#557791"/>
    <ellipse id="Ellipse_11" data-name="Ellipse 11" cx="5.471" cy="5.483" rx="5.471" ry="5.483" transform="translate(7.5 7.5)" fill="#557791"/>
    <path id="Polygon_1" data-name="Polygon 1" d="M2.5,0,5,5H0Z" transform="translate(16 10.5) rotate(90)" fill="#fff"/>
  </g>
</svg>
