<svg xmlns="http://www.w3.org/2000/svg" width="21" height="24" viewBox="0 0 21 24">
  <g id="image" transform="translate(-2 -2)">
    <path id="Path_62" data-name="Path 62" d="M13.575,9.6A1.7,1.7,0,0,1,12,7.8,1.7,1.7,0,0,1,13.575,6,1.7,1.7,0,0,1,15.15,7.8,1.7,1.7,0,0,1,13.575,9.6Z" transform="translate(0.5 0.8)" fill="#e4e7eb"/>
    <path id="Path_63" data-name="Path 63" d="M19.85,2H5.15A3.408,3.408,0,0,0,2,5.6V16.232l4.074-4.656a2.945,2.945,0,0,1,4.452,0l3.015,3.464.932-1.065a2.887,2.887,0,0,1,4.454,0L23,18.63V5.6A3.408,3.408,0,0,0,19.85,2Zm-5.775,8.4A1.7,1.7,0,0,1,12.5,8.6a1.7,1.7,0,0,1,1.575-1.8A1.7,1.7,0,0,1,15.65,8.6,1.7,1.7,0,0,1,14.075,10.4Z" fill="#e4e7eb"/>
    <path id="Path_64" data-name="Path 64" d="M10.526,10.149a2.945,2.945,0,0,0-4.452,0L2,14.806v6.168a3.408,3.408,0,0,0,3.15,3.6h14.7a2.973,2.973,0,0,0,2.268-1.1Z" transform="translate(0 1.426)" fill="#557791"/>
    <path id="Path_65" data-name="Path 65" d="M22.45,16.809l-4.073-4.655a2.887,2.887,0,0,0-4.454,0l-.932,1.065,8.572,9.85a3.838,3.838,0,0,0,.887-2.491Z" transform="translate(0.55 1.821)" fill="#aabbc8"/>
  </g>
</svg>
