<svg xmlns="http://www.w3.org/2000/svg" width="24" height="24" viewBox="0 0 24 24">
  <g id="manager" transform="translate(-0.5 -0.495)">
    <path id="Path_5" data-name="Path 5" d="M22.855,21.075V19H17.823a4.645,4.645,0,0,1-9.29,0H3.5v2.075H5.157A8.188,8.188,0,0,0,6.039,23.2L4.87,24.373,7.8,27.307l1.169-1.169a8.187,8.187,0,0,0,2.129.883v1.657h4.15V27.021a8.187,8.187,0,0,0,2.129-.883l1.169,1.169,2.934-2.934L20.315,23.2a8.188,8.188,0,0,0,.883-2.129Z" transform="translate(-0.677 -4.182)" fill="#cbd2d9"/>
    <path id="Path_6" data-name="Path 6" d="M23.4,12.942v.387H2.5v-.387c0-.132,0-.255.008-.387A10.417,10.417,0,0,1,6.371,4.828a8,8,0,0,1,.774-.573,10.433,10.433,0,0,1,11.613,0,9.074,9.074,0,0,1,.774.573,10.3,10.3,0,0,1,.813.728,10.413,10.413,0,0,1,3.05,7C23.4,12.686,23.4,12.81,23.4,12.942Z" transform="translate(-0.452 -0.451)" fill="#557791"/>
    <rect id="Rectangle_12" data-name="Rectangle 12" width="24" height="2.323" rx="1.161" transform="translate(0.5 12.88)" fill="#557791"/>
    <path id="Path_7" data-name="Path 7" d="M23.4,15.877v.387H2.5v-.387c0-.132,0-.255.008-.387H23.4C23.4,15.622,23.4,15.745,23.4,15.877Z" transform="translate(-0.452 -3.388)" fill="#557791"/>
    <path id="Path_8" data-name="Path 8" d="M20.113,4.038V7.909H8.5V4.038A1.553,1.553,0,0,1,10.048,2.49h8.516a1.553,1.553,0,0,1,1.548,1.548Z" transform="translate(-1.806 -0.45)" fill="#557791"/>
    <path id="Path_9" data-name="Path 9" d="M7.824,8.424h.451V4.77a8,8,0,0,0-.774.573ZM19.887,4.77V8.424h.451l.323-3.081a9.074,9.074,0,0,0-.774-.573Z" transform="translate(-1.581 -0.965)" fill="#557791"/>
    <path id="Path_10" data-name="Path 10" d="M12.5,11.334l.636-8.908A2.079,2.079,0,0,1,15.21.495h0a2.079,2.079,0,0,1,2.073,1.931l.636,8.908" transform="translate(-2.71)" fill="#557791"/>
    <path id="Path_11" data-name="Path 11" d="M13.164,2.49a1.225,1.225,0,0,0-.07.333l-.356,4.329-.279,3.329L12.4,7.151,12.32,2.823a1.225,1.225,0,0,1,.07-.333Zm4.854.333-.077,4.329-.062,3.329L17.6,7.151l-.356-4.329a1.225,1.225,0,0,0-.07-.333h.774a1.225,1.225,0,0,1,.07.333Z" transform="translate(-2.669 -0.45)" fill="#557791"/>
  </g>
</svg>
