<svg xmlns="http://www.w3.org/2000/svg" width="26.667" height="24" viewBox="0 0 26.667 24">
  <g id="office-bag" transform="translate(-2 -3)">
    <path id="Path_20" data-name="Path 20" d="M24.667,6H6a4,4,0,0,0-4,4v3.628l9.117,3.039H19.55l9.117-3.039V10A4,4,0,0,0,24.667,6Z" transform="translate(0 1)" fill="#cbd2d9"/>
    <path id="Path_21" data-name="Path 21" d="M12.667,7V5.667H18V7h2.667V5.667A2.67,2.67,0,0,0,18,3H12.667A2.67,2.67,0,0,0,10,5.667V7Zm-1.55,10.667L2,14.628V23a4,4,0,0,0,4,4H24.667a4,4,0,0,0,4-4V14.628L19.55,17.667Z" fill="#557791"/>
  </g>
</svg>
