<svg xmlns="http://www.w3.org/2000/svg" width="11.01" height="12" viewBox="0 0 11.01 12">
  <path id="Path_66" data-name="Path 66" d="M25.271,33.549l.011.01a.91.91,0,0,0,.094.082c.012.009.023.02.035.029a.863.863,0,0,0,1,0l.008-.007a.844.844,0,0,0,.122-.107l.007-.006,2.941-3.164A.872.872,0,0,0,28.212,29.2l-1.429,1.538V25.53a.872.872,0,0,0-1.744,0v5.207L23.608,29.2a.872.872,0,1,0-1.278,1.187Zm-3.994,3.109h9.265a.872.872,0,1,0,0-1.744H21.277a.872.872,0,0,0,0,1.744Z" transform="translate(-20.405 -24.658)" fill="#fff"/>
</svg>
