<svg xmlns="http://www.w3.org/2000/svg" width="20" height="20" viewBox="0 0 20 20">
  <path id="save" d="M15,12.5H5a1.249,1.249,0,0,0-1.25,1.25v5A1.249,1.249,0,0,0,5,20H15a1.249,1.249,0,0,0,1.25-1.25v-5A1.249,1.249,0,0,0,15,12.5ZM17.5.23V7.5a1.25,1.25,0,0,1-1.25,1.25H3.75A1.25,1.25,0,0,1,2.5,7.5V.23A3.74,3.74,0,0,0,0,3.75v12.5a3.738,3.738,0,0,0,2.5,3.52V12.5a1.249,1.249,0,0,1,1.25-1.25h12.5A1.249,1.249,0,0,1,17.5,12.5v7.27A3.74,3.74,0,0,0,20,16.25V3.75A3.74,3.74,0,0,0,17.5.23ZM7.5,7.5H15a1.25,1.25,0,0,0,1.25-1.25v-5A1.25,1.25,0,0,0,15,0H7.5A1.25,1.25,0,0,0,6.25,1.25v5A1.25,1.25,0,0,0,7.5,7.5Zm5-5a1.25,1.25,0,0,1,2.5,0V5a1.25,1.25,0,0,1-2.5,0Z" fill="#fff"/>
</svg>
