<svg xmlns="http://www.w3.org/2000/svg" xmlns:xlink="http://www.w3.org/1999/xlink" width="24" height="24" viewBox="0 0 24 24">
  <defs>
    <clipPath id="clip-path">
      <path id="Path_19" data-name="Path 19" d="M0-47.5H24v24H0Z"/>
    </clipPath>
  </defs>
  <g id="shirt" transform="translate(0 47.5)" clip-path="url(#clip-path)">
    <path id="Path_12" data-name="Path 12" d="M-22.263-19.789a2.526,2.526,0,0,1-2.526,2.526H-42.474A2.526,2.526,0,0,1-45-19.789V-37.474A2.526,2.526,0,0,1-42.474-40h17.684a2.526,2.526,0,0,1,2.526,2.526Z" transform="translate(45.632 -6.868)" fill="#e4e7eb"/>
    <path id="Path_13" data-name="Path 13" d="M-6.2-17.646a1.214,1.214,0,0,1-1.693,0l-4.189-4.124a1.607,1.607,0,0,1-.274-1.834l4.737-11.651a.6.6,0,0,1,1.146,0L-1.736-23.6a1.607,1.607,0,0,1-.274,1.834Z" transform="translate(19.045 -6.83)" fill="#557791"/>
    <path id="Path_14" data-name="Path 14" d="M-1.793-4.79c.6,0,1.266-.6,1.831-1.384l-1.258-3.1a.6.6,0,0,0-1.146,0l-1.259,3.1c.567.783,1.232,1.384,1.832,1.384" transform="translate(13.793 -32.814)" fill="#00223c"/>
    <path id="Path_15" data-name="Path 15" d="M-6.184-1.718c0,1.24-1.763,4.492-3.158,4.492S-12.5-.478-12.5-1.718c0-1.126,1.763-1.755,3.158-1.755s3.158.628,3.158,1.755" transform="translate(21.342 -41.501)" fill="#557791"/>
    <path id="Path_16" data-name="Path 16" d="M0-2.474V-1.05C1.31.7,4.281,3.845,5.053,3.845,6.448,3.845,12-2.973,12-4.368,12-5,11.368-5,10.737-5H2.526A2.526,2.526,0,0,0,0-2.474" transform="translate(0.632 -41.868)" fill="#cbd2d9"/>
    <path id="Path_17" data-name="Path 17" d="M0-.618C0,.777,5.552,7.6,6.947,7.6,7.719,7.6,10.69,4.449,12,2.7V1.276A2.526,2.526,0,0,0,9.474-1.25H1.263C.632-1.25,0-1.25,0-.618" transform="translate(11.368 -45.618)" fill="#cbd2d9"/>
    <path id="Path_18" data-name="Path 18" d="M-.481,0A2.517,2.517,0,0,0-.972.05C-.225,1.1,3.663,1.895,8.361,1.895S16.947,1.1,17.694.05A2.517,2.517,0,0,0,17.2,0Z" transform="translate(3.639 -46.868)" fill="#557791"/>
  </g>
</svg>
