<svg xmlns="http://www.w3.org/2000/svg" width="24" height="24" viewBox="0 0 24 24">
  <g id="workers" transform="translate(-7.5 -105.529)">
    <path id="Path_32" data-name="Path 32" d="M19.949,298.521v2.357H7.5v-2.357a4.344,4.344,0,0,1,1.988-3.814l2.437-1.379.449-1.25.125-.351H14.95l.125.351.449,1.25,2.437,1.38A4.344,4.344,0,0,1,19.949,298.521Z" transform="translate(0 -171.348)" fill="#557791"/>
    <path id="Path_33" data-name="Path 33" d="M48.413,370.015v2.357H47.44v-2.357a.5.5,0,1,1,.973,0Z" transform="translate(-37.348 -242.843)" fill="#557791"/>
    <path id="Path_34" data-name="Path 34" d="M79.271,293.328a2.117,2.117,0,0,1-1.5,1.615,1.985,1.985,0,0,1-2.1-1.615l.144-.4.305-.849.125-.351H78.7l.125.351.305.849Z" transform="translate(-63.746 -171.349)" fill="#cbd2d9"/>
    <path id="Path_35" data-name="Path 35" d="M81.2,292.927a1.881,1.881,0,0,1-3.312,0l.305-.849.125-.351h2.452l.125.351Z" transform="translate(-65.822 -171.349)" fill="#cbd2d9"/>
    <path id="Path_36" data-name="Path 36" d="M64.959,184.823c0,2.294-1.284,4.827-2.868,4.827s-2.868-2.533-2.868-4.827,1.284-5.1,2.868-5.1S64.959,182.529,64.959,184.823Z" transform="translate(-48.368 -68.278)" fill="#cbd2d9"/>
    <path id="Path_37" data-name="Path 37" d="M52.071,184.481c0-2.261.464-5.04,3.332-5.04h0c2.868,0,3.332,2.779,3.332,5.04Z" transform="translate(-41.678 -68.017)" fill="#557791"/>
    <path id="Path_38" data-name="Path 38" d="M44.373,236.335h-7.76a.611.611,0,0,1,0-1.2h7.76a.611.611,0,0,1,0,1.2Z" transform="translate(-26.769 -119.274)" fill="#557791"/>
    <path id="Path_39" data-name="Path 39" d="M93.058,170.921v-1.363a.581.581,0,0,0-.513-.631h-.531a.581.581,0,0,0-.513.631v1.363" transform="translate(-78.549 -58.342)" fill="#557791"/>
    <ellipse id="Ellipse_12" data-name="Ellipse 12" cx="0.924" cy="1.135" rx="0.924" ry="1.135" transform="translate(12.801 114.194)" fill="#557791"/>
    <path id="Path_48" data-name="Path 48" d="M150.436,269.93v2.981H134.69V269.93a5.5,5.5,0,0,1,2.513-4.823l3.082-1.746h0l.568-1.581.159-.443h3.1l.159.443.568,1.581,3.083,1.746A5.5,5.5,0,0,1,150.436,269.93Z" transform="translate(-118.936 -143.382)" fill="#557791"/>
    <path id="Path_49" data-name="Path 49" d="M185.518,362.185v2.981h-.973v-2.981a.5.5,0,1,1,.973,0Zm-9.735,0v2.981h-.973v-2.981a.5.5,0,1,1,.973,0Z" transform="translate(-156.452 -235.637)" fill="#557791"/>
    <path id="Path_50" data-name="Path 50" d="M225.455,263.361h0a2.678,2.678,0,0,1-1.9,2.042,2.511,2.511,0,0,1-2.658-2.042h0l.26-.725.308-.856.159-.443h3.1l.159.443.308.856Z" transform="translate(-199.551 -143.382)" fill="#cbd2d9"/>
    <path id="Path_51" data-name="Path 51" d="M228.954,262.636a2.341,2.341,0,0,1-4.034,0l.308-.856.159-.443h3.1l.159.443Z" transform="translate(-203.31 -143.382)" fill="#cbd2d9"/>
    <path id="Path_52" data-name="Path 52" d="M207.366,126.123c0,2.9-1.624,6.1-3.627,6.1s-3.627-3.2-3.627-6.1,1.624-6.449,3.627-6.449S207.366,123.222,207.366,126.123Z" transform="translate(-180.112 -13.017)" fill="#cbd2d9"/>
    <path id="Path_53" data-name="Path 53" d="M191.065,125.69c0-2.86.587-6.375,4.214-6.375h0c3.627,0,4.214,3.515,4.214,6.375Z" transform="translate(-171.652 -12.687)" fill="#557791"/>
    <path id="Path_54" data-name="Path 54" d="M183.185,192.946h-9.815a.611.611,0,0,1,0-1.2h9.815a.611.611,0,0,1,0,1.2Z" transform="translate(-154.651 -79.345)" fill="#557791"/>
    <path id="Path_55" data-name="Path 55" d="M242.947,108.08v-1.753a.735.735,0,0,0-.649-.8h-.649a.735.735,0,0,0-.649.8v1.753" transform="translate(-218.346)" fill="#557791"/>
    <ellipse id="Ellipse_14" data-name="Ellipse 14" cx="1.168" cy="1.436" rx="1.168" ry="1.436" transform="translate(22.459 110.132)" fill="#557791"/>
  </g>
</svg>
