<svg xmlns="http://www.w3.org/2000/svg" width="26" height="24" viewBox="0 0 26 24">
  <g id="invoice_1_" data-name="invoice (1)" transform="translate(-1 -1)">
    <path id="Path_108" data-name="Path 108" d="M29.609,2.043V21.87A3.269,3.269,0,0,1,26.217,25H7a3.269,3.269,0,0,0,3.391-3.13V2.043A1.09,1.09,0,0,1,11.522,1H28.478A1.09,1.09,0,0,1,29.609,2.043Z" transform="translate(-2.609)" fill="#e4e7eb"/>
    <path id="Path_109" data-name="Path 109" d="M35.7,2.043V21.87a2.964,2.964,0,0,1-.87,2.087H24.391A3.269,3.269,0,0,1,21,20.826V18.217h3.391a.523.523,0,1,0,0-1.043H21V16.13h1.7a.523.523,0,1,0,0-1.043H21V3.609a.545.545,0,0,0,.565-.522A.545.545,0,0,0,21,2.565V1H34.565A1.09,1.09,0,0,1,35.7,2.043Z" transform="translate(-8.696)" fill="#e4e7eb"/>
    <path id="Path_110" data-name="Path 110" d="M7.783,27v7.3a3.269,3.269,0,0,1-3.391,3.13A3.269,3.269,0,0,1,1,34.3V28.043A1.09,1.09,0,0,1,2.13,27Z" transform="translate(0 -12.435)" fill="#e4e7eb"/>
    <path id="Path_111" data-name="Path 111" d="M8.826,27v7.3A3.215,3.215,0,0,1,6,37.388a3.6,3.6,0,0,0,2.753-.695,3.039,3.039,0,0,0,1.2-2.389V27Z" transform="translate(-2.174 -12.435)" fill="#cbd2d9"/>
    <rect id="Rectangle_17" data-name="Rectangle 17" width="10.739" height="2.087" transform="translate(14 5.174)" fill="#aabbc8"/>
    <path id="Path_112" data-name="Path 112" d="M35.174,9v1.565H26.13A1.09,1.09,0,0,1,25,9.522V9Z" transform="translate(-10.435 -3.826)" fill="#557791"/>
    <rect id="Rectangle_18" data-name="Rectangle 18" width="3.957" height="2.087" transform="translate(10.043 5.174)" fill="#aabbc8"/>
    <path id="Path_113" data-name="Path 113" d="M22.7,9v1.565A1.634,1.634,0,0,1,21,9Z" transform="translate(-8.696 -3.826)" fill="#557791"/>
    <rect id="Rectangle_19" data-name="Rectangle 19" width="10.739" height="2.087" transform="translate(14 7.261)" fill="#aabbc8"/>
    <rect id="Rectangle_20" data-name="Rectangle 20" width="3.957" height="2.087" transform="translate(10.043 7.261)" fill="#aabbc8"/>
    <rect id="Rectangle_21" data-name="Rectangle 21" width="10.739" height="2.087" transform="translate(14 9.348)" fill="#aabbc8"/>
    <rect id="Rectangle_22" data-name="Rectangle 22" width="3.957" height="2.087" transform="translate(10.043 9.348)" fill="#aabbc8"/>
    <rect id="Rectangle_23" data-name="Rectangle 23" width="10.739" height="2.087" transform="translate(14 11.435)" fill="#aabbc8"/>
    <rect id="Rectangle_24" data-name="Rectangle 24" width="3.957" height="2.087" transform="translate(10.043 11.435)" fill="#aabbc8"/>
    <path id="Path_114" data-name="Path 114" d="M21,5.043V4a.545.545,0,0,1,.565.522A.545.545,0,0,1,21,5.043Z" transform="translate(-8.696 -1.435)" fill="#557791"/>
    <path id="Path_115" data-name="Path 115" d="M18.826,4V5.043H16.565A.545.545,0,0,1,16,4.522.545.545,0,0,1,16.565,4Z" transform="translate(-6.522 -1.435)" fill="#557791"/>
    <path id="Path_116" data-name="Path 116" d="M33.435,5.043H28.913a.545.545,0,0,1-.565-.522A.545.545,0,0,1,28.913,4h4.522A.545.545,0,0,1,34,4.522.545.545,0,0,1,33.435,5.043ZM22.7,17.565H21V16.522h1.7a.523.523,0,1,1,0,1.043Z" transform="translate(-8.696 -1.435)" fill="#557791"/>
    <path id="Path_117" data-name="Path 117" d="M18.826,28v1.043H16.565a.523.523,0,1,1,0-1.043Z" transform="translate(-6.522 -12.913)" fill="#557791"/>
    <path id="Path_118" data-name="Path 118" d="M24.391,33.043H21V32h3.391a.523.523,0,1,1,0,1.043Z" transform="translate(-8.696 -14.826)" fill="#557791"/>
    <path id="Path_119" data-name="Path 119" d="M18.826,32v1.043H16.565a.523.523,0,1,1,0-1.043Z" transform="translate(-6.522 -14.826)" fill="#557791"/>
    <path id="Path_120" data-name="Path 120" d="M39.695,33.695a.523.523,0,1,1,.565-.522.545.545,0,0,0,.565.522c.938,0,.684-1.565-.565-1.993a.567.567,0,0,0-1.13,0,1.554,1.554,0,0,0-1.093,1.736,1.662,1.662,0,0,0,1.658,1.3.523.523,0,1,1-.565.522.545.545,0,0,0-.565-.522c-.938,0-.684,1.565.565,1.993a.567.567,0,0,0,1.13,0,1.554,1.554,0,0,0,1.093-1.736A1.662,1.662,0,0,0,39.695,33.695Z" transform="translate(-16.086 -14.434)" fill="#557791"/>
    <path id="Path_121" data-name="Path 121" d="M35.174,13v1.565H26.13A1.09,1.09,0,0,1,25,13.522V13Zm0,2.087v1.565H26.13A1.09,1.09,0,0,1,25,15.609v-.522Zm0,2.087v1.565H26.13A1.09,1.09,0,0,1,25,17.7v-.522Z" transform="translate(-10.435 -5.739)" fill="#557791"/>
    <path id="Path_122" data-name="Path 122" d="M22.7,13v1.565A1.634,1.634,0,0,1,21,13Zm0,2.087v1.565A1.634,1.634,0,0,1,21,15.087Zm0,2.087v1.565A1.634,1.634,0,0,1,21,17.174Z" transform="translate(-8.696 -5.739)" fill="#557791"/>
  </g>
</svg>
