<svg xmlns="http://www.w3.org/2000/svg" width="20" height="20.4" viewBox="0 0 20 20.4">
  <g id="Group_130" data-name="Group 130" transform="translate(-336.182 -19.6)">
    <path id="Icon_awesome-user-alt" data-name="Icon awesome-user-alt" d="M10,11.25A5.625,5.625,0,1,0,4.375,5.625,5.626,5.626,0,0,0,10,11.25Zm5,1.25H12.848a6.8,6.8,0,0,1-5.7,0H5a5,5,0,0,0-5,5v.625A1.875,1.875,0,0,0,1.875,20h16.25A1.875,1.875,0,0,0,20,18.125V17.5A5,5,0,0,0,15,12.5Z" transform="translate(336.182 20)" fill="#00345b"/>
    <circle id="Ellipse_20" data-name="Ellipse 20" cx="6" cy="6" r="6" transform="translate(340.183 19.6)" fill="#aabbc8"/>
  </g>
</svg>
