<svg xmlns="http://www.w3.org/2000/svg" width="20" height="20" viewBox="0 0 20 20">
  <g id="employee" transform="translate(455.668 -1384.355)">
    <path id="Path_147" data-name="Path 147" d="M-453.107,1385.43h0c-.135,0-.255.16-.255.339v2.458a1.48,1.48,0,0,0,.525,1.18v.58c0,.038.015.079.015.121,0,.078-.015.159-.015.24v1.039a3.927,3.927,0,0,0,1.065,2.8,1.834,1.834,0,0,1-.54,1.219,7.149,7.149,0,0,1-1.41.919,4.431,4.431,0,0,0-1.559,1.319,5.136,5.136,0,0,0-.72,2.9v.36h11.607v-.36a4.771,4.771,0,0,0-.735-2.818,4.283,4.283,0,0,0-1.53-1.28,6.267,6.267,0,0,1-1.395-.919,2.013,2.013,0,0,1-.54-1.36,3.964,3.964,0,0,0,1.035-2.779v-3.159c0-1.16-.705-2.119-1.575-2.119h-3.089a1.1,1.1,0,0,1-.435-.121.625.625,0,0,1-.15-.122.249.249,0,0,1-.03-.1c0-.2-.12-.359-.27-.339h0Z" transform="translate(0.332 0.119)" fill="#aabbc8"/>
    <path id="Path_148" data-name="Path 148" d="M-443.035,1385.43h0c-.135,0-.255.16-.255.339v2.458a1.48,1.48,0,0,0,.525,1.18v.58c0,.038.015.079.015.121,0,.078-.015.159-.015.24v1.039a3.927,3.927,0,0,0,1.065,2.8,1.834,1.834,0,0,1-.54,1.219,7.147,7.147,0,0,1-1.41.919,4.431,4.431,0,0,0-1.559,1.319,5.136,5.136,0,0,0-.72,2.9v.36h11.607v-.36a4.771,4.771,0,0,0-.735-2.818,4.283,4.283,0,0,0-1.53-1.28,6.265,6.265,0,0,1-1.395-.919,2.013,2.013,0,0,1-.54-1.36,3.964,3.964,0,0,0,1.035-2.779v-3.159c0-1.16-.705-2.119-1.575-2.119h-3.089a1.1,1.1,0,0,1-.435-.121.625.625,0,0,1-.15-.122.249.249,0,0,1-.03-.1c0-.2-.12-.359-.27-.339h0Z" transform="translate(-1.347 0.119)" fill="#aabbc8"/>
    <path id="Path_149" data-name="Path 149" d="M-449.261,1384.36h0c-.175,0-.329.207-.329.439v3.176a1.913,1.913,0,0,0,.679,1.524v.749c0,.049.019.1.019.156,0,.1-.019.206-.019.31v1.343a5.075,5.075,0,0,0,1.376,3.617,2.37,2.37,0,0,1-.7,1.576,9.262,9.262,0,0,1-1.822,1.188,5.723,5.723,0,0,0-2.015,1.7,6.637,6.637,0,0,0-.93,3.746v.465h15v-.465a6.165,6.165,0,0,0-.95-3.641,5.54,5.54,0,0,0-1.977-1.654,8.106,8.106,0,0,1-1.8-1.188,2.6,2.6,0,0,1-.7-1.757,5.122,5.122,0,0,0,1.337-3.591v-4.083c0-1.5-.911-2.738-2.035-2.738h-3.992a1.406,1.406,0,0,1-.562-.156.781.781,0,0,1-.194-.158.321.321,0,0,1-.039-.129c0-.257-.155-.464-.349-.438h0Z" transform="translate(-0.168)" fill="#2b4255"/>
  </g>
</svg>
