<svg xmlns="http://www.w3.org/2000/svg" width="16" height="17" viewBox="0 0 16 17">
  <g id="Group_122" data-name="Group 122" transform="translate(-336.182 -19)">
    <path id="Icon_awesome-user-alt" data-name="Icon awesome-user-alt" d="M8,9A4.5,4.5,0,1,0,3.5,4.5,4.5,4.5,0,0,0,8,9Zm4,1H10.278a5.44,5.44,0,0,1-4.556,0H4a4,4,0,0,0-4,4v.5A1.5,1.5,0,0,0,1.5,16h13A1.5,1.5,0,0,0,16,14.5V14A4,4,0,0,0,12,10Z" transform="translate(336.182 20)" fill="#845d3f"/>
    <circle id="Ellipse_19" data-name="Ellipse 19" cx="5" cy="5" r="5" transform="translate(339.2 19)" fill="#d6c9bf"/>
  </g>
</svg>
