<svg xmlns="http://www.w3.org/2000/svg" width="25.929" height="24.806" viewBox="0 0 25.929 24.806">
  <g id="Group_86" data-name="Group 86" transform="translate(-2.518 -1019.826)">
    <path id="Path_101" data-name="Path 101" d="M9.224,1024.754a4.825,4.825,0,0,0-3.793-.77l2.4,1.823-.695,1.583-2.084.528-2.4-1.822a2.525,2.525,0,0,0,1.014,2.881,4.809,4.809,0,0,0,3.783.763l11.888,9.03a2.511,2.511,0,0,0,1,2.874,4.825,4.825,0,0,0,3.793.77l-2.4-1.823.695-1.583,2.084-.528,2.4,1.823a2.524,2.524,0,0,0-1.014-2.881,4.809,4.809,0,0,0-3.783-.763l-11.888-9.03a2.511,2.511,0,0,0-1-2.874Z" transform="translate(0 -0.589)" fill="#cbd2d9"/>
    <path id="Path_102" data-name="Path 102" d="M10.224,1024.754a4.825,4.825,0,0,0-3.793-.77l2.4,1.823-.695,1.583-2.084.528-2.4-1.822a2.525,2.525,0,0,0,1.014,2.881,4.809,4.809,0,0,0,3.783.763l11.888,9.03a2.511,2.511,0,0,0,1,2.874,4.825,4.825,0,0,0,3.793.77l-2.4-1.823.695-1.583,2.084-.528,2.4,1.823a2.524,2.524,0,0,0-1.014-2.881,4.809,4.809,0,0,0-3.783-.763l-11.888-9.03a2.511,2.511,0,0,0-1-2.874Z" transform="translate(-0.017 -0.589)" fill="#557791"/>
    <g id="Group_86-2" data-name="Group 86" transform="translate(3.443 1039.438) rotate(-45)">
      <path id="Path_103" data-name="Path 103" d="M.034,1.154A.94.94,0,0,1,1.154.034l1.3.177L24.062,3.164l3.694,2.2L24.535,6.622,2.923,3.669l-1.3-.177C.908,3.394.107,2.7.152,2.018L.093,1.586Z" transform="translate(0 0)" fill="#e4e7eb"/>
      <path id="Path_104" data-name="Path 104" d="M0,0,.472,3.458,22.085,6.411l-.472-3.458Z" transform="translate(2.568 1.076)" fill="#557791"/>
      <path id="Path_105" data-name="Path 105" d="M24.062,3.164l.472,3.458,3.222-1.257ZM2.45.211,1.154.034a.94.94,0,0,0-1.12,1.12l.118.865A1.815,1.815,0,0,0,1.626,3.492l1.3.177Z" transform="translate(0.118 0.864)" fill="#aabbc8" opacity="0.97"/>
      <path id="Path_106" data-name="Path 106" d="M24.383,4.6l.924.55-.805.314ZM0,0,.472,3.458l.864.118L.864.118Z" transform="translate(2.568 1.076)" fill="#e4e7eb" opacity="0.97"/>
    </g>
  </g>
</svg>
