<svg xmlns="http://www.w3.org/2000/svg" width="24" height="24" viewBox="0 0 24 24">
  <g id="Group_77" data-name="Group 77" transform="translate(334.503 -1583.76)">
    <path id="Path_92" data-name="Path 92" d="M-309.553,1587.29v-1.765a1.709,1.709,0,0,0-1.655-1.765h-17.379a1.709,1.709,0,0,1,1.655,1.765v1.765h17.379Z" transform="translate(-0.95)" fill="#aabbc8"/>
    <path id="Path_93" data-name="Path 93" d="M-329.192,563.4a1.709,1.709,0,0,0-1.655,1.765v17.649a1.709,1.709,0,0,1-1.655,1.765h17.379a1.709,1.709,0,0,0,1.655-1.765V566.932h-14.069v-1.765A1.709,1.709,0,0,0-329.192,563.4Z" transform="translate(-0.345 1020.362)" fill="#e4e7eb"/>
    <path id="Path_94" data-name="Path 94" d="M-315.193,1602.63v7.348l-1.6-1.069-1.713,1.069v-7.114" transform="translate(-2.758 -2.218)" fill="#aabbc8"/>
    <path id="Path_95" data-name="Path 95" d="M-316.5,1605.24v2.224" transform="translate(-3.103 -2.525)" fill="none" stroke="#557791" stroke-linecap="round" stroke-linejoin="round" stroke-width="1"/>
    <path id="Path_96" data-name="Path 96" d="M7.143,7.616c-.114.122-1.1-.018-1.239.068S5.384,8.751,5.228,8.8s-.944-.6-1.1-.6-.95.647-1.105.6-.535-1.025-.674-1.11S1.219,7.74,1.1,7.619,1.122,6.446,1.042,6.3.042,5.744,0,5.578.565,4.572.565,4.4-.041,3.388,0,3.221s.961-.571,1.042-.72-.05-1.2.064-1.322,1.1.018,1.239-.068S2.865.046,3.021,0s.944.6,1.1.6.95-.647,1.105-.6.535,1.024.674,1.11,1.125-.055,1.239.067S7.128,2.35,7.208,2.5s1,.553,1.041.719S7.685,4.225,7.685,4.4s.606,1.012.564,1.178-.961.571-1.042.72S7.257,7.495,7.143,7.616Z" transform="translate(-323.757 1594.395) rotate(-0.326)" fill="#aabbc8"/>
    <ellipse id="Ellipse_16" data-name="Ellipse 16" cx="2.483" cy="2.647" rx="2.483" ry="2.647" transform="translate(-322.089 1596.123)" fill="#406b95"/>
    <path id="Path_97" data-name="Path 97" d="M2.731,3.229c-.108.1-.88-.4-1.02-.4s-.841.611-.96.53S.829,2.338.777,2.2s-.8-.678-.77-.825.929-.229,1.036-.325.343-1.03.484-1.04.5.884.615.965,1.017.042,1.069.183-.622.775-.656.922.285,1.056.177,1.153Z" transform="matrix(0.998, 0.061, -0.059, 0.998, -321.141, 1597.058)" fill="#aabbc8"/>
    <path id="Path_98" data-name="Path 98" d="M-328,1590.76h13.241M-328,1593.407h13.241M-328,1596.055h4.965M-328,1598.7h4.138" transform="translate(-1.121 -0.823)" fill="none" stroke="#557791" stroke-linecap="round" stroke-linejoin="round" stroke-width="1"/>
    <path id="Path_100" data-name="Path 100" d="M-331.193,1603.77v1.765a1.709,1.709,0,0,1-1.655,1.765,1.709,1.709,0,0,1-1.655-1.765v-1.765" transform="translate(0 -2.352)" fill="#aabbc8"/>
  </g>
</svg>
