<svg xmlns="http://www.w3.org/2000/svg" width="24" height="24" viewBox="0 0 24 24">
  <g id="import" transform="translate(-0.002 -4.012)">
    <path id="Path_83" data-name="Path 83" d="M11.338,4.453.106,26.7A.884.884,0,0,0,.77,28.013H23.234A.883.883,0,0,0,23.9,26.7L12.666,4.453A.72.72,0,0,0,11.338,4.453Z" transform="translate(0)" fill="#aabbc8"/>
    <path id="Path_84" data-name="Path 84" d="M7.57,30.58l9.162-18.14,9.162,18.14Z" transform="translate(-4.73 -4.814)" fill="#e4e7eb"/>
    <path id="Path_85" data-name="Path 85" d="M30.591,34.3H29.529a.2.2,0,0,1-.188-.2L28.9,27.5a.207.207,0,0,1,.188-.232h1.943a.207.207,0,0,1,.188.232l-.439,6.6A.2.2,0,0,1,30.591,34.3Zm-.011,3.143H29.544a.2.2,0,0,1-.188-.214V35.943a.2.2,0,0,1,.188-.214h1.035a.2.2,0,0,1,.188.214v1.282A.2.2,0,0,1,30.579,37.44Z" transform="translate(-18.06 -13.286)" fill="#557791"/>
  </g>
</svg>
