<svg xmlns="http://www.w3.org/2000/svg" width="24" height="24" viewBox="0 0 24 24">
  <path id="Path_79" data-name="Path 79" d="M.305-2.35h3.8l.64-3.779H.945Zm-3.24-3.779H-6.375c-1.32,0-1.92-.8-1.92-1.591s.6-1.592,1.92-1.592h4l.88-5.336c.2-1.194.8-1.592,2-1.592.96,0,1.841.53,1.841,1.327a2.8,2.8,0,0,1-.08.8l-.8,4.806H5.3l.881-5.336c.2-1.194.8-1.592,2-1.592.96,0,1.841.53,1.841,1.327a2.8,2.8,0,0,1-.08.8l-.8,4.806h3.441c1.32,0,1.919.8,1.919,1.592s-.6,1.591-1.919,1.591h-4L7.946-2.35h3.44c1.321,0,1.921.8,1.921,1.591S12.706.833,11.385.833h-4L6.506,6.169c-.2,1.194-.8,1.591-2,1.591-.96,0-1.84-.53-1.84-1.326a2.8,2.8,0,0,1,.08-.8l.8-4.806H-.295l-.88,5.336c-.2,1.194-.8,1.591-2,1.591-.96,0-1.841-.53-1.841-1.326a2.8,2.8,0,0,1,.08-.8l.8-4.806H-7.575C-8.9.833-9.5.037-9.5-.759s.6-1.591,1.92-1.591h4l.64-3.779Z" transform="translate(9.495 16.24)" fill="#557791"/>
</svg>
